<svg width="80" height="90" viewBox="0 0 80 90" fill="none" xmlns="http://www.w3.org/2000/svg">
<g clip-path="url(#clip0_378_7806)">
<rect width="80" height="80" rx="4" fill="#F79C14"/>
<path d="M42.1471 50.2002C41.8992 50.5365 41.5758 50.8099 41.2029 50.9983C40.8301 51.1867 40.4182 51.2848 40.0004 51.2848C39.5826 51.2848 39.1707 51.1867 38.7978 50.9983C38.425 50.8099 38.1016 50.5365 37.8537 50.2002C31.1871 41.2669 31.7604 36.9602 31.7604 36.9602C31.7604 34.7748 32.6285 32.679 34.1738 31.1337C35.7191 29.5884 37.815 28.7202 40.0004 28.7202C42.1858 28.7202 44.2817 29.5884 45.827 31.1337C47.3723 32.679 48.2404 34.7748 48.2404 36.9602C48.2404 36.9602 48.7737 41.3335 42.1471 50.2002Z" stroke="white" stroke-width="2" stroke-linecap="round" stroke-linejoin="round"/>
<path d="M39.9997 39.6131C41.4724 39.6131 42.6663 38.4192 42.6663 36.9465C42.6663 35.4737 41.4724 34.2798 39.9997 34.2798C38.5269 34.2798 37.333 35.4737 37.333 36.9465C37.333 38.4192 38.5269 39.6131 39.9997 39.6131Z" stroke="white" stroke-width="2" stroke-linecap="round" stroke-linejoin="round"/>
</g>
<rect x="26.4424" y="76" width="19.1738" height="19.1738" transform="rotate(-45 26.4424 76)" fill="#F79C14"/>
<defs>
<clipPath id="clip0_378_7806">
<rect width="80" height="80" rx="40" fill="white"/>
</clipPath>
</defs>
</svg>
