<svg width="14" height="15" viewBox="0 0 14 15" fill="none" xmlns="http://www.w3.org/2000/svg">
<path fill-rule="evenodd" clip-rule="evenodd" d="M6.4235 2.80442C6.59445 2.69184 6.79466 2.63184 6.99935 2.63184C7.20404 2.63184 7.40425 2.69184 7.5752 2.80442L7.57642 2.80523L8.14568 3.18279L11.7354 5.57593L12.6328 6.17416C12.839 6.31162 12.8947 6.59021 12.7573 6.79641C12.6198 7.00262 12.3412 7.05835 12.135 6.92089L11.9352 6.78768V10.7356C11.9352 11.3306 11.6988 11.9013 11.2781 12.322C10.8573 12.7428 10.2867 12.9792 9.69163 12.9792H8.19592C7.9481 12.9792 7.74721 12.7783 7.74721 12.5304V9.53901C7.74721 9.49934 7.73145 9.4613 7.7034 9.43325C7.67535 9.4052 7.6373 9.38944 7.59763 9.38944H6.40106C6.36139 9.38944 6.32335 9.4052 6.2953 9.43325C6.26725 9.4613 6.25149 9.49934 6.25149 9.53901V12.5304C6.25149 12.7783 6.0506 12.9792 5.80278 12.9792H4.30706C3.71203 12.9792 3.14137 12.7428 2.72062 12.322C2.29987 11.9013 2.06349 11.3306 2.06349 10.7356V6.78768L1.86366 6.92089C1.65746 7.05835 1.37887 7.00262 1.24141 6.79641C1.10396 6.59021 1.15969 6.31162 1.36589 6.17416L2.2633 5.57594L5.85302 3.18279L5.8539 3.1822L6.42228 2.80523L6.4235 2.80442ZM2.96092 6.18943V10.7356C2.96092 11.0926 3.10275 11.435 3.3552 11.6875C3.60765 11.9399 3.95004 12.0817 4.30706 12.0817H5.35406V9.53901C5.35406 9.26133 5.46437 8.99502 5.66072 8.79867C5.85707 8.60232 6.12338 8.49201 6.40106 8.49201H7.59763C7.87532 8.49201 8.14162 8.60232 8.33798 8.79867C8.53433 8.99502 8.64463 9.26133 8.64463 9.53901V12.0817H9.69163C10.0487 12.0817 10.3911 11.9399 10.6435 11.6875C10.896 11.435 11.0378 11.0926 11.0378 10.7356V6.18943L7.64876 3.93008L7.64788 3.9295L7.08161 3.55392C7.08148 3.55384 7.08135 3.55375 7.08122 3.55366C7.05689 3.53775 7.02843 3.52927 6.99935 3.52927C6.97026 3.52927 6.94181 3.53775 6.91748 3.55366C6.91735 3.55375 6.91722 3.55384 6.91708 3.55392L6.35082 3.9295L6.34994 3.93008L2.96092 6.18943Z" fill="#81878E"/>
</svg>
