<svg width="18" height="19" viewBox="0 0 18 19" fill="none" xmlns="http://www.w3.org/2000/svg">
<path fill-rule="evenodd" clip-rule="evenodd" d="M8.25962 3.37424C8.47942 3.22949 8.73682 3.15234 9 3.15234C9.26318 3.15234 9.52058 3.22949 9.74038 3.37424L9.74195 3.37527L10.4739 3.86071L15.0892 6.9376L16.243 7.70676C16.5081 7.88349 16.5798 8.24168 16.4031 8.5068C16.2263 8.77192 15.8681 8.84357 15.603 8.66684L15.3461 8.49557V13.5714C15.3461 14.3365 15.0422 15.0702 14.5012 15.6112C13.9603 16.1521 13.2266 16.456 12.4615 16.456H10.5384C10.2198 16.456 9.96153 16.1978 9.96153 15.8791V12.033C9.96153 11.982 9.94127 11.9331 9.90521 11.897C9.86914 11.861 9.82023 11.8407 9.76922 11.8407H8.23078C8.17977 11.8407 8.13086 11.861 8.09479 11.897C8.05873 11.9331 8.03847 11.982 8.03847 12.033V15.8791C8.03847 16.1978 7.78017 16.456 7.46155 16.456H5.53849C4.77345 16.456 4.03974 16.1521 3.49878 15.6112C2.95781 15.0702 2.6539 14.3365 2.6539 13.5714V8.49557L2.39698 8.66684C2.13186 8.84357 1.77367 8.77192 1.59694 8.5068C1.42021 8.24168 1.49186 7.88349 1.75698 7.70676L2.9108 6.93762L7.52615 3.86071L7.52729 3.85995L8.25805 3.37528L8.25962 3.37424ZM3.80773 7.7264V13.5714C3.80773 14.0305 3.99008 14.4707 4.31466 14.7953C4.63924 15.1199 5.07946 15.3022 5.53849 15.3022H6.88463V12.033C6.88463 11.676 7.02646 11.3336 7.27891 11.0811C7.53136 10.8287 7.87376 10.6869 8.23078 10.6869H9.76922C10.1262 10.6869 10.4686 10.8287 10.7211 11.0811C10.9735 11.3336 11.1154 11.676 11.1154 12.033V15.3022H12.4615C12.9205 15.3022 13.3608 15.1199 13.6853 14.7953C14.0099 14.4707 14.1923 14.0305 14.1923 13.5714V7.7264L9.83496 4.82152L9.83382 4.82076L9.10577 4.33788C9.1056 4.33777 9.10543 4.33766 9.10527 4.33755C9.07398 4.31709 9.0374 4.30618 9 4.30618C8.9626 4.30618 8.92602 4.31709 8.89474 4.33755C8.89457 4.33766 8.8944 4.33777 8.89423 4.33788L8.16618 4.82076L8.16504 4.82152L3.80773 7.7264Z" fill="white"/>
</svg>
