<svg width="64" height="65" viewBox="0 0 64 65" fill="none" xmlns="http://www.w3.org/2000/svg">
<rect x="1" y="1.06641" width="62" height="62" rx="31" fill="#F79C14"/>
<path fill-rule="evenodd" clip-rule="evenodd" d="M32 23.4097C28.9398 23.4097 26.005 24.6253 23.8412 26.7891L19.9699 30.6603C19.5968 31.0333 19.3872 31.5393 19.3872 32.0669C19.3872 32.5945 19.5968 33.1005 19.9699 33.4736L23.8412 37.3448C26.005 39.5086 28.9398 40.7242 32 40.7242C35.0602 40.7242 37.995 39.5086 40.1588 37.3448L44.0301 33.4736C44.4032 33.1005 44.6128 32.5945 44.6128 32.0669C44.6128 31.5393 44.4032 31.0333 44.0301 30.6603L40.1588 26.7891C37.995 24.6253 35.0602 23.4097 32 23.4097ZM22.1531 25.1011C24.7647 22.4896 28.3067 21.0225 32 21.0225C35.6933 21.0225 39.2353 22.4896 41.8469 25.1011L45.7181 28.9723C46.5389 29.793 47 30.9062 47 32.0669C47 33.2277 46.5389 34.3409 45.7181 35.1616L41.8469 39.0328C39.2353 41.6443 35.6933 43.1114 32 43.1114C28.3067 43.1114 24.7647 41.6443 22.1531 39.0328L18.2819 35.1616C17.4611 34.3409 17 33.2277 17 32.0669C17 30.9062 17.4611 29.793 18.2819 28.9723L22.1531 25.1011ZM32 29.2809C30.4618 29.2809 29.2149 30.5279 29.2149 32.066C29.2149 33.6042 30.4618 34.8511 32 34.8511C33.5382 34.8511 34.7851 33.6042 34.7851 32.066C34.7851 30.5279 33.5382 29.2809 32 29.2809ZM26.8276 32.066C26.8276 29.2094 29.1434 26.8937 32 26.8937C34.8566 26.8937 37.1724 29.2094 37.1724 32.066C37.1724 34.9226 34.8566 37.2383 32 37.2383C29.1434 37.2383 26.8276 34.9226 26.8276 32.066Z" fill="white"/>
<rect x="1" y="1.06641" width="62" height="62" rx="31" stroke="white" stroke-width="2"/>
</svg>
