<svg width="24" height="24" viewBox="0 0 24 24" fill="none" xmlns="http://www.w3.org/2000/svg">
<path d="M9.28785 3.64256C9.3563 3.40982 9.5699 3.25 9.8125 3.25H14.1875C14.3633 3.25 14.5283 3.3345 14.6311 3.47711C14.7339 3.61972 14.7619 3.80304 14.7063 3.96981L12.7587 9.81249H16.9219C17.1307 9.81249 17.3214 9.93146 17.4131 10.1191C17.5049 10.3067 17.4818 10.5302 17.3535 10.6951L9.6973 20.5388C9.53522 20.7472 9.2474 20.8101 9.0132 20.6882C8.779 20.5664 8.66529 20.2946 8.74293 20.0423L10.7127 13.6406H7.07813C6.90578 13.6406 6.74351 13.5594 6.64026 13.4214C6.53701 13.2834 6.50485 13.1048 6.55348 12.9394L9.28785 3.64256Z" fill="white"/>
</svg>
