<svg width="32" height="33" viewBox="0 0 32 33" fill="none" xmlns="http://www.w3.org/2000/svg">
<path d="M22.468 0.305664H9.53395C4.27745 0.305664 0.000976562 4.58213 0.000976562 9.83864V22.7727C0.000976562 28.0292 4.27745 32.3057 9.53395 32.3057H22.468C27.7245 32.3057 32.001 28.0292 32.001 22.7727V9.83864C32.0009 4.58213 27.7244 0.305664 22.468 0.305664ZM28.7818 22.7727C28.7818 26.2597 25.955 29.0865 22.468 29.0865H9.53395C6.04698 29.0865 3.22018 26.2597 3.22018 22.7727V9.83864C3.22018 6.35161 6.04698 3.52486 9.53395 3.52486H22.468C25.955 3.52486 28.7818 6.35161 28.7818 9.83864V22.7727Z" fill="url(#paint0_linear_327_5169)"/>
<path d="M16.0008 8.02962C11.4372 8.02962 7.72441 11.7424 7.72441 16.3059C7.72441 20.8694 11.4372 24.5822 16.0008 24.5822C20.5643 24.5822 24.2771 20.8695 24.2771 16.3059C24.2771 11.7423 20.5643 8.02962 16.0008 8.02962ZM16.0008 21.3631C13.2077 21.3631 10.9436 19.099 10.9436 16.306C10.9436 13.513 13.2078 11.2488 16.0008 11.2488C18.7938 11.2488 21.0579 13.513 21.0579 16.306C21.0579 19.0989 18.7937 21.3631 16.0008 21.3631Z" fill="url(#paint1_linear_327_5169)"/>
<path d="M24.2933 10.0752C25.3886 10.0752 26.2765 9.18725 26.2765 8.09197C26.2765 6.99669 25.3886 6.10879 24.2933 6.10879C23.198 6.10879 22.3101 6.99669 22.3101 8.09197C22.3101 9.18725 23.198 10.0752 24.2933 10.0752Z" fill="url(#paint2_linear_327_5169)"/>
<defs>
<linearGradient id="paint0_linear_327_5169" x1="16.001" y1="32.2125" x2="16.001" y2="0.554214" gradientUnits="userSpaceOnUse">
<stop stop-color="#E09B3D"/>
<stop offset="0.3" stop-color="#C74C4D"/>
<stop offset="0.6" stop-color="#C21975"/>
<stop offset="1" stop-color="#7024C4"/>
</linearGradient>
<linearGradient id="paint1_linear_327_5169" x1="16.001" y1="47.0573" x2="16.001" y2="-14.1454" gradientUnits="userSpaceOnUse">
<stop stop-color="#E09B3D"/>
<stop offset="0.3" stop-color="#C74C4D"/>
<stop offset="0.6" stop-color="#C21975"/>
<stop offset="1" stop-color="#7024C4"/>
</linearGradient>
<linearGradient id="paint2_linear_327_5169" x1="24.2933" y1="32.213" x2="24.2933" y2="0.554723" gradientUnits="userSpaceOnUse">
<stop stop-color="#E09B3D"/>
<stop offset="0.3" stop-color="#C74C4D"/>
<stop offset="0.6" stop-color="#C21975"/>
<stop offset="1" stop-color="#7024C4"/>
</linearGradient>
</defs>
</svg>
