<svg width="92" height="41" viewBox="0 0 92 41" fill="none" xmlns="http://www.w3.org/2000/svg">
<path fill-rule="evenodd" clip-rule="evenodd" d="M3.40222 1.92597C3.42775 1.66928 3.48221 1.41638 3.56453 1.17218C3.63862 0.952426 3.84284 0.804688 4.07252 0.804688H7.19278C7.35474 0.804688 7.50515 0.889451 7.5903 1.02871C7.67896 1.17383 7.71797 1.34438 7.7013 1.51411L4.4132 35.0027C4.39079 35.2308 4.41881 35.4611 4.49522 35.677C4.56941 35.8863 4.7242 36.0565 4.92441 36.1488L5.33603 36.3384C5.81364 36.5583 6.33237 36.6721 6.85719 36.6721H7.57696C8.29247 36.6721 8.97779 36.3807 9.47812 35.8637C9.98502 35.3398 10.3036 34.6594 10.383 33.931L13.9171 1.50233C13.9355 1.33329 13.9905 1.17041 14.078 1.02518C14.1607 0.888228 14.308 0.804688 14.4668 0.804688H17.6524C17.821 0.804688 17.9578 0.942895 17.9578 1.11338V1.42178L14.6006 35.3963C14.5094 36.3188 14.2583 37.2179 13.8587 38.0524L13.747 38.2856C13.4238 38.9604 12.9379 39.5422 12.3341 39.9775C11.7347 40.4098 11.0201 40.6492 10.2838 40.6643L3.59837 40.8016C2.80052 40.818 2.03806 40.4691 1.52373 39.8523L1.37136 39.6696C0.93318 39.1443 0.576599 38.5547 0.313854 37.921C0.0538936 37.2938 -0.0470237 36.6108 0.02026 35.9342L3.40222 1.92597ZM22.4431 2.88234C22.8389 2.23614 23.397 1.70753 24.0607 1.35034C24.7262 0.992073 25.4686 0.804688 26.2226 0.804688H32.2002C32.9284 0.804688 33.6331 1.06457 34.1903 1.5385C34.7568 2.02047 35.1971 2.63617 35.4721 3.33113L35.527 3.46976C35.8384 4.25635 35.9568 5.10746 35.8721 5.95036L32.7701 36.8191L32.5622 38.7301C32.4426 39.8288 31.5465 40.6742 30.4539 40.719L28.3678 40.8045C28.242 40.8097 28.1375 40.7077 28.1379 40.5805L28.1388 40.3471L29.8803 23.0013L29.8812 22.1929C29.8817 21.7465 29.5239 21.3844 29.0823 21.3844H24.2848C24.1598 21.3844 24.0548 21.4793 24.0409 21.6049L24.0168 21.8254L22.1077 38.6676C21.9789 39.8044 21.0518 40.678 19.9209 40.7281L18.2425 40.8023C18.0873 40.8091 17.9578 40.6838 17.9578 40.5267V40.2389L21.3167 5.99151C21.4142 4.99677 21.7356 4.03776 22.256 3.18781L22.4431 2.88234ZM58.0933 1.7393V1.41914C58.0933 1.24216 58.2352 1.09868 58.4103 1.09868H61.524C62.0257 1.09868 62.4072 1.55401 62.3247 2.05417L62.167 3.00965L59.2546 33.5852L59.0812 34.6379C58.9949 35.1625 59.1644 35.6969 59.5364 36.073C59.9159 36.4566 60.4307 36.6721 60.9674 36.6721H62.1932C62.7316 36.6721 63.2637 36.5553 63.7536 36.3296C64.2243 36.1129 64.5745 35.6949 64.7084 35.1899L64.7764 34.9331C64.9625 34.2315 65.0956 33.5166 65.1747 32.7946L68.5652 1.83367L68.5643 1.46618C68.5638 1.26336 68.7263 1.09868 68.927 1.09868H71.2972C72.0361 1.09868 72.6072 1.75423 72.5139 2.49516L72.3376 3.89164L69.2829 35.3406C69.188 36.3176 68.9125 37.2679 68.4706 38.1421L68.3345 38.4113C67.985 39.1025 67.4677 39.6927 66.8309 40.1266C66.1979 40.5578 65.452 40.7881 64.6888 40.7881H58.3116C57.4717 40.7881 56.6724 40.4224 56.1182 39.7844L55.939 39.578C55.4821 39.0518 55.1347 38.438 54.9177 37.7732C54.7008 37.1089 54.6247 36.406 54.6943 35.71L58.0933 1.7393ZM41.5374 2.84707C42.1355 2.41643 42.7972 2.0842 43.498 1.8627L43.6503 1.81456C44.4526 1.56095 45.2873 1.4281 46.1278 1.42028L47.9285 1.40354C48.6988 1.39637 49.4625 1.54751 50.1732 1.84778L50.3847 1.93705C50.9575 2.1788 51.483 2.52192 51.9366 2.95026L51.9755 2.98705C52.4038 3.39116 52.7608 3.86608 53.0313 4.39143C53.2997 4.9131 53.4397 5.49257 53.4392 6.0806L53.4364 9.47755L53.2022 12.5197C53.1236 13.5406 52.2812 14.3285 51.2682 14.3285C50.2866 14.3285 49.4997 13.5073 49.531 12.5154L49.7157 6.66325C49.7288 6.2476 49.538 5.85221 49.2059 5.60681C48.8612 5.35197 48.4452 5.21462 48.0182 5.21462H45.8735C45.354 5.21462 44.8506 5.39641 44.4487 5.72911C44.0485 6.0605 43.7828 6.52897 43.702 7.04546L43.2754 9.77155L43.1828 14.0165C43.1451 15.7458 44.4746 17.1919 46.1835 17.2805L48.0926 17.3794C48.8543 17.4189 49.5956 17.6414 50.2552 18.0284C50.9115 18.4135 51.4499 18.9741 51.8115 19.6484L51.8252 19.6739C52.1954 20.3645 52.3683 21.1455 52.3247 21.9298L51.586 35.2089C51.5341 36.1417 51.2379 37.0439 50.7279 37.8231C50.2157 38.6053 49.5298 39.2557 48.7249 39.7224L48.4227 39.8976C47.4223 40.4774 46.2894 40.7829 45.1363 40.7836L40.741 40.7865C40.0077 40.787 39.2847 40.6109 38.6319 40.273C37.9856 39.9386 37.4571 39.4106 37.1188 38.7612L37.1051 38.7348C36.7545 38.0618 36.5709 37.3129 36.5699 36.5523L36.5685 35.3492L37.073 29.8803C37.179 28.731 38.1331 27.8523 39.275 27.8523H40.3304C40.8315 27.8523 41.2117 28.3086 41.1265 28.8078L40.9633 29.7632L40.6217 34.9803C40.5926 35.4251 40.7547 35.861 41.0665 36.1762C41.3807 36.4937 41.8068 36.6721 42.2511 36.6721H45.397C45.8307 36.6721 46.2439 36.4849 46.5325 36.1576C46.8266 35.8242 47.002 35.4011 47.0312 34.9554L47.6011 26.2353L47.6848 24.0303C47.7312 22.8093 46.7956 21.7785 45.5882 21.7204L42.4075 21.5673C41.9168 21.5437 41.4387 21.4029 41.0121 21.1565C40.5852 20.9099 40.2196 20.568 39.9433 20.1568L39.6307 19.6918C39.1533 18.9817 38.8983 18.1429 38.8988 17.2843L38.9004 14.4755L39.6515 6.22301C39.7104 5.57626 39.8924 4.94712 40.1876 4.37026C40.4812 3.79643 40.9059 3.30163 41.4265 2.9269L41.5374 2.84707ZM76.7068 1.60464V1.49881C76.7068 1.44019 76.7539 1.39268 76.8118 1.39268H78.6726C79.8081 1.39268 80.7783 2.21999 80.9696 3.35139L84.38 23.5224C84.3921 23.5938 84.4788 23.6217 84.5295 23.5705C84.6075 23.4916 84.656 23.3878 84.6666 23.2768L86.5475 3.61149C86.6611 2.42402 87.6238 1.50328 88.803 1.45442L90.0433 1.40284C90.4712 1.38505 90.8128 1.75966 90.7604 2.18941L90.66 3.00965L86.8861 40.3665V40.5773C86.8861 40.6937 86.7928 40.7881 86.6776 40.7881H83.3812C83.0698 40.7881 82.7969 40.5773 82.715 40.2736L82.5765 39.7591L79.2943 19.0375C79.2738 18.9085 79.0899 18.9094 79.0708 19.0386L78.9626 19.7674L77.0635 38.3827C76.9313 39.6781 75.8761 40.6777 74.5887 40.7269L72.582 40.8037C72.4522 40.8087 72.3443 40.7036 72.3443 40.5723V40.3318L72.921 35.6432L76.7068 1.60464ZM31.3773 6.89303C31.4251 6.34832 31.2016 5.8153 30.7811 5.47127C30.3458 5.11501 29.8028 4.92062 29.2427 4.92062H28.4364C27.6899 4.92062 26.9719 5.20998 26.4301 5.72911C25.886 6.25066 25.5455 6.95251 25.4706 7.70669L24.6235 16.2394L24.4644 17.0585C24.3828 17.4784 24.7076 17.8663 25.1307 17.8545L28.7073 17.7545C29.6336 17.7286 30.402 17.0221 30.5152 16.0924L30.7124 14.4755L31.3773 6.89303Z" fill="white"/>
</svg>
