<svg width="78" height="25" viewBox="0 0 78 25" fill="none" xmlns="http://www.w3.org/2000/svg">
<path fill-rule="evenodd" clip-rule="evenodd" d="M24.7282 1.41425C24.7437 1.25973 24.7768 1.10748 24.8269 0.960483C24.872 0.828194 24.9963 0.739258 25.136 0.739258H27.0348C27.1333 0.739258 27.2249 0.790284 27.2767 0.874115C27.3306 0.961472 27.3544 1.06415 27.3442 1.16632L25.3434 21.3259C25.3297 21.4632 25.3468 21.6018 25.3933 21.7318C25.4384 21.8578 25.5326 21.9603 25.6544 22.0158L25.9049 22.13C26.1956 22.2623 26.5112 22.3308 26.8306 22.3308H27.2686C27.704 22.3308 28.121 22.1554 28.4255 21.8442C28.7339 21.5288 28.9278 21.1192 28.9761 20.6807L31.1267 1.15923C31.1379 1.05747 31.1713 0.959415 31.2246 0.871993C31.2749 0.789548 31.3646 0.739258 31.4612 0.739258H33.3997C33.5023 0.739258 33.5855 0.822457 33.5855 0.925087V1.11074L31.5426 21.5628C31.4871 22.1182 31.3343 22.6594 31.0911 23.1618L31.0232 23.3021C30.8265 23.7083 30.5308 24.0586 30.1634 24.3206C29.7986 24.5809 29.3638 24.725 28.9158 24.7341L24.8475 24.8167C24.362 24.8266 23.898 24.6165 23.5851 24.2453L23.4923 24.1353C23.2257 23.8191 23.0087 23.4641 22.8488 23.0827C22.6906 22.7051 22.6292 22.294 22.6702 21.8866L24.7282 1.41425ZM36.3149 1.98997C36.5558 1.60097 36.8954 1.28275 37.2993 1.06773C37.7042 0.85206 38.156 0.739258 38.6148 0.739258H42.2523C42.6954 0.739258 43.1243 0.8957 43.4633 1.181C43.8081 1.47114 44.076 1.84178 44.2433 2.26013L44.2767 2.34358C44.4662 2.8171 44.5383 3.32945 44.4867 3.83687L42.5991 22.4193L42.4726 23.5697C42.3998 24.2311 41.8545 24.74 41.1897 24.767L39.9202 24.8185C39.8437 24.8216 39.7801 24.7602 39.7803 24.6836L39.7809 24.5431L40.8406 14.1013L40.8412 13.6146C40.8415 13.3459 40.6237 13.1279 40.355 13.1279H37.4357C37.3596 13.1279 37.2957 13.185 37.2872 13.2606L37.2725 13.3933L36.1108 23.5321C36.0324 24.2164 35.4683 24.7423 34.7801 24.7725L33.7588 24.8171C33.6643 24.8212 33.5855 24.7458 33.5855 24.6512V24.478L35.6295 3.86164C35.6888 3.26282 35.8844 2.68551 36.2011 2.17386L36.3149 1.98997ZM58.0088 1.30188V1.10915C58.0088 1.00261 58.0952 0.916239 58.2017 0.916239H60.0965C60.4017 0.916239 60.6339 1.19034 60.5837 1.49142L60.4878 2.06661L58.7155 20.4726L58.6099 21.1063C58.5574 21.4221 58.6606 21.7438 58.887 21.9702C59.1179 22.2011 59.4311 22.3308 59.7577 22.3308H60.5037C60.8313 22.3308 61.1551 22.2605 61.4532 22.1247C61.7396 21.9942 61.9527 21.7426 62.0342 21.4385L62.0756 21.284C62.1888 20.8616 62.2699 20.4313 62.318 19.9967L64.3811 1.35869L64.3806 1.13746C64.3803 1.01537 64.4792 0.916239 64.6013 0.916239H66.0436C66.4933 0.916239 66.8408 1.31087 66.784 1.75689L66.6768 2.59755L64.8179 21.5293C64.7602 22.1174 64.5925 22.6895 64.3236 23.2157L64.2408 23.3778C64.0281 23.7939 63.7133 24.1492 63.3258 24.4104C62.9406 24.6699 62.4868 24.8086 62.0223 24.8086H58.1416C57.6305 24.8086 57.1442 24.5884 56.8069 24.2044L56.6979 24.0801C56.4198 23.7634 56.2084 23.3939 56.0764 22.9936C55.9444 22.5938 55.8981 22.1706 55.9405 21.7517L58.0088 1.30188ZM47.9342 1.96874C48.2981 1.7095 48.7008 1.5095 49.1273 1.37616L49.22 1.34718C49.7081 1.19452 50.2161 1.11454 50.7276 1.10984L51.8233 1.09975C52.292 1.09544 52.7568 1.18643 53.1893 1.36718L53.318 1.42092C53.6665 1.56645 53.9863 1.773 54.2623 2.03086L54.286 2.053C54.5466 2.29627 54.7639 2.58216 54.9285 2.89841C55.0918 3.21245 55.177 3.56128 55.1767 3.91527L55.175 5.96017L55.0325 7.79148C54.9847 8.40604 54.472 8.88034 53.8556 8.88034C53.2582 8.88034 52.7794 8.38599 52.7985 7.78893L52.9109 4.26601C52.9188 4.0158 52.8027 3.77778 52.6006 3.63005C52.3909 3.47664 52.1378 3.39396 51.8779 3.39396H50.5728C50.2567 3.39396 49.9503 3.50339 49.7058 3.70367C49.4623 3.90317 49.3006 4.18518 49.2514 4.49609L48.9918 6.13715L48.9354 8.69251C48.9125 9.73354 49.7215 10.6041 50.7615 10.6574L51.9232 10.717C52.3867 10.7407 52.8378 10.8747 53.2392 11.1076C53.6385 11.3395 53.9662 11.6769 54.1862 12.0829L54.1945 12.0982C54.4198 12.5139 54.525 12.9841 54.4985 13.4562L54.0489 21.45C54.0174 22.0116 53.8372 22.5547 53.5268 23.0237C53.2151 23.4946 52.7977 23.8861 52.3079 24.167L52.124 24.2725C51.5153 24.6216 50.8259 24.8055 50.1242 24.8059L47.4496 24.8076C47.0033 24.8079 46.5634 24.7019 46.1662 24.4985C45.7728 24.2972 45.4513 23.9793 45.2454 23.5884L45.237 23.5725C45.0237 23.1674 44.912 22.7166 44.9114 22.2587L44.9105 21.5344L45.2175 18.2423C45.282 17.5504 45.8626 17.0214 46.5575 17.0214H47.1997C47.5046 17.0214 47.736 17.2962 47.6841 17.5966L47.5848 18.1718L47.377 21.3124C47.3593 21.5802 47.4579 21.8425 47.6477 22.0323C47.8388 22.2234 48.0981 22.3308 48.3685 22.3308H50.2828C50.5468 22.3308 50.7982 22.2182 50.9738 22.0211C51.1528 21.8204 51.2595 21.5657 51.2773 21.2974L51.6241 16.048L51.675 14.7207C51.7033 13.9857 51.1339 13.3651 50.3992 13.3302L48.4637 13.238C48.1651 13.2238 47.8741 13.139 47.6146 12.9907C47.3548 12.8422 47.1323 12.6364 46.9641 12.3889L46.7739 12.109C46.4834 11.6815 46.3283 11.1766 46.3286 10.6597L46.3295 8.96884L46.7866 4.001C46.8224 3.61166 46.9332 3.23293 47.1128 2.88567C47.2915 2.54023 47.5499 2.24237 47.8667 2.01679L47.9342 1.96874ZM69.3355 1.22082V1.15711C69.3355 1.12182 69.3641 1.09322 69.3994 1.09322H70.5317C71.2227 1.09322 71.8131 1.59124 71.9295 2.27233L74.0048 14.415C74.0122 14.4579 74.0649 14.4747 74.0958 14.4439C74.1432 14.3964 74.1727 14.3339 74.1792 14.2671L75.3237 2.4289C75.3929 1.71407 75.9787 1.1598 76.6963 1.13038L77.451 1.09934C77.7114 1.08862 77.9193 1.31413 77.8874 1.57284L77.8263 2.06661L75.5298 24.5548V24.6817C75.5298 24.7518 75.473 24.8086 75.4029 24.8086H73.397C73.2075 24.8086 73.0414 24.6817 72.9916 24.4989L72.9073 24.1891L70.91 11.7151C70.8976 11.6374 70.7857 11.638 70.774 11.7157L70.7082 12.1545L69.5525 23.3606C69.4721 24.1404 68.83 24.7421 68.0466 24.7718L66.8255 24.818C66.7465 24.821 66.6808 24.7577 66.6808 24.6787V24.5339L67.0318 21.7114L69.3355 1.22082ZM41.7516 4.40434C41.7807 4.07643 41.6446 3.75556 41.3887 3.54846C41.1239 3.334 40.7934 3.21698 40.4526 3.21698H39.962C39.5077 3.21698 39.0708 3.39117 38.7411 3.70367C38.41 4.01764 38.2028 4.44014 38.1572 4.89415L37.6417 10.0307L37.5449 10.5238C37.4953 10.7765 37.6929 11.0101 37.9504 11.003L40.1268 10.9427C40.6905 10.9271 41.1581 10.5019 41.227 9.94222L41.347 8.96884L41.7516 4.40434Z" fill="#2D3238"/>
<path d="M18.3008 11.9131C18.3008 16.9667 14.204 21.0635 9.1504 21.0635C4.09677 21.0635 0 16.9667 0 11.9131C0 6.85943 4.09677 2.76266 9.1504 2.76266C14.204 2.76266 18.3008 6.85943 18.3008 11.9131Z" fill="#F79C14"/>
</svg>
