<svg width="160" height="51" viewBox="0 0 160 51" fill="none" xmlns="http://www.w3.org/2000/svg">
<path fill-rule="evenodd" clip-rule="evenodd" d="M50.7957 2.20629C50.8276 1.88543 50.8956 1.5693 50.9985 1.26406C51.0912 0.989361 51.3464 0.804688 51.6335 0.804688H55.5339C55.7363 0.804688 55.9243 0.910642 56.0308 1.08471C56.1416 1.26611 56.1903 1.47931 56.1695 1.69147L52.0594 43.5522C52.0314 43.8373 52.0664 44.1252 52.1619 44.395C52.2546 44.6568 52.4481 44.8695 52.6984 44.9848L53.2129 45.2219C53.8099 45.4968 54.4583 45.639 55.1144 45.639H56.0141C56.9085 45.639 57.7651 45.2747 58.3905 44.6284C59.0242 43.9736 59.4224 43.123 59.5216 42.2126L63.9393 1.67674C63.9623 1.46544 64.031 1.26184 64.1404 1.08031C64.2438 0.909113 64.4279 0.804688 64.6263 0.804688H68.6084C68.8192 0.804688 68.9901 0.977447 68.9901 1.19056V1.57606L64.7936 44.0442C64.6796 45.1974 64.3657 46.3213 63.8663 47.3644L63.7266 47.6558C63.3226 48.4993 62.7153 49.2265 61.9606 49.7708C61.2112 50.3111 60.318 50.6103 59.3977 50.6292L51.0408 50.8008C50.0435 50.8213 49.0904 50.3852 48.4475 49.6142L48.2571 49.3859C47.7094 48.7293 47.2636 47.9922 46.9352 47.2001C46.6102 46.416 46.4841 45.5624 46.5682 44.7166L50.7957 2.20629ZM74.5968 3.40175C75.0915 2.594 75.7892 1.93324 76.6187 1.48676C77.4506 1.03892 78.3786 0.804688 79.3211 0.804688H86.7931C87.7033 0.804688 88.5843 1.12954 89.2807 1.72195C89.9889 2.32441 90.5392 3.09404 90.883 3.96274L90.9516 4.13602C91.3408 5.11926 91.4889 6.18315 91.383 7.23678L87.5055 45.8227L87.2456 48.2115C87.0961 49.5849 85.976 50.6416 84.6103 50.6976L82.0026 50.8045C81.8454 50.8109 81.7147 50.6835 81.7153 50.5245L81.7164 50.2327L83.8933 28.5505L83.8944 27.5399C83.895 26.9819 83.4477 26.5293 82.8957 26.5293H76.8989C76.7427 26.5293 76.6114 26.648 76.594 26.8049L76.5638 27.0805L74.1775 48.1334C74.0165 49.5544 72.8576 50.6463 71.444 50.709L69.346 50.8017C69.152 50.8102 68.9901 50.6535 68.9901 50.4572V50.0974L73.1887 7.28822C73.3107 6.04479 73.7123 4.84603 74.3629 3.78359L74.5968 3.40175ZM119.159 1.97295V1.57275C119.159 1.35152 119.337 1.17218 119.556 1.17218H123.448C124.075 1.17218 124.552 1.74135 124.449 2.36654L124.252 3.56089L120.611 41.7803L120.394 43.0963C120.287 43.752 120.498 44.42 120.963 44.89C121.438 45.3696 122.081 45.639 122.752 45.639H124.284C124.957 45.639 125.622 45.493 126.235 45.2109C126.823 44.94 127.261 44.4174 127.428 43.7861L127.513 43.4653C127.746 42.5882 127.912 41.6946 128.011 40.7921L132.249 2.09092L132.248 1.63155C132.248 1.37803 132.451 1.17218 132.702 1.17218H135.664C136.588 1.17218 137.302 1.99162 137.185 2.91777L136.965 4.66338L133.147 43.9746C133.028 45.1958 132.683 46.3837 132.131 47.4765L131.961 47.8129C131.524 48.677 130.877 49.4147 130.082 49.9571C129.29 50.496 128.358 50.7839 127.404 50.7839H119.432C118.382 50.7839 117.383 50.3268 116.691 49.5293L116.467 49.2713C115.895 48.6136 115.461 47.8463 115.19 47.0153C114.919 46.185 114.824 45.3063 114.911 44.4364L119.159 1.97295ZM98.4646 3.35767C99.2122 2.81937 100.039 2.40408 100.915 2.1272L101.106 2.06703C102.109 1.75002 103.152 1.58395 104.203 1.57418L106.453 1.55325C107.416 1.54429 108.371 1.73322 109.259 2.10856L109.524 2.22014C110.24 2.52233 110.897 2.95123 111.464 3.48666L111.512 3.53264C112.048 4.03777 112.494 4.63143 112.832 5.28811C113.168 5.94021 113.342 6.66454 113.342 7.39958L113.338 11.6458L113.046 15.4484C112.947 16.7245 111.894 17.7094 110.628 17.7094C109.401 17.7094 108.417 16.6829 108.457 15.4431L108.688 8.1279C108.704 7.60833 108.465 7.1141 108.05 6.80733C107.619 6.48879 107.099 6.3171 106.566 6.3171H103.885C103.235 6.3171 102.606 6.54434 102.104 6.96021C101.604 7.37445 101.271 7.96004 101.17 8.60565L100.637 12.0133L100.521 17.3194C100.474 19.481 102.136 21.2887 104.272 21.3994L106.659 21.5231C107.611 21.5725 108.537 21.8506 109.362 22.3343C110.182 22.8157 110.855 23.5164 111.307 24.3593L111.324 24.3912C111.787 25.2544 112.003 26.2307 111.949 27.211L111.025 43.8099C110.96 44.976 110.59 46.1037 109.953 47.0777C109.312 48.0555 108.455 48.8684 107.449 49.4518L107.071 49.6708C105.821 50.3956 104.405 50.7774 102.963 50.7784L97.4692 50.7819C96.5524 50.7825 95.6487 50.5625 94.8328 50.1401C94.0249 49.722 93.3643 49.0621 92.9414 48.2503L92.9242 48.2174C92.486 47.3761 92.2565 46.4399 92.2553 45.4892L92.2534 43.9853L92.8841 37.1492C93.0166 35.7126 94.2093 34.6142 95.6366 34.6142H96.9559C97.5822 34.6142 98.0575 35.1846 97.9509 35.8085L97.747 37.0029L97.32 43.5242C97.2836 44.0802 97.4863 44.625 97.876 45.019C98.2687 45.416 98.8013 45.639 99.3567 45.639H103.289C103.831 45.639 104.348 45.405 104.709 44.9959C105.076 44.5791 105.295 44.0502 105.332 43.4931L106.044 32.5929L106.149 29.8367C106.207 28.3104 105.037 27.022 103.528 26.9493L99.5522 26.758C98.9389 26.7284 98.3412 26.5525 97.8081 26.2445C97.2744 25.9362 96.8174 25.5088 96.4719 24.9949L96.0812 24.4136C95.4845 23.526 95.1658 22.4774 95.1664 21.4043L95.1684 17.8932L96.1073 7.57759C96.1808 6.76915 96.4084 5.98273 96.7774 5.26165C97.1444 4.54436 97.6753 3.92586 98.326 3.45745L98.4646 3.35767ZM142.426 1.80463V1.67234C142.426 1.59907 142.485 1.53968 142.558 1.53968H144.884C146.303 1.53968 147.516 2.57381 147.755 3.98807L152.018 29.2019C152.033 29.2911 152.141 29.326 152.205 29.262C152.302 29.1634 152.363 29.0336 152.376 28.8948L154.727 4.31319C154.869 2.82886 156.073 1.67793 157.547 1.61685L159.097 1.55238C159.632 1.53014 160.059 1.9984 159.993 2.53559L159.868 3.56089L155.151 50.257V50.5204C155.151 50.666 155.034 50.7839 154.89 50.7839H150.769C150.38 50.7839 150.039 50.5205 149.937 50.1408L149.764 49.4977L145.661 23.5956C145.635 23.4344 145.405 23.4356 145.381 23.597L145.246 24.5081L142.872 47.7772C142.707 49.3965 141.388 50.6459 139.779 50.7075L137.27 50.8034C137.108 50.8096 136.973 50.6783 136.973 50.5142V50.2136L137.694 44.3528L142.426 1.80463ZM85.7645 8.41512C85.8242 7.73423 85.5448 7.06795 85.0192 6.63792C84.4752 6.19259 83.7963 5.9496 83.0963 5.9496H82.0884C81.1553 5.9496 80.2577 6.3113 79.5805 6.96021C78.9004 7.61215 78.4748 8.48947 78.3812 9.4322L77.3222 20.0981L77.1233 21.122C77.0214 21.6468 77.4273 22.1317 77.9562 22.117L82.427 21.9919C83.5848 21.9595 84.5454 21.0765 84.6869 19.9144L84.9334 17.8932L85.7645 8.41512Z" fill="white"/>
<path d="M37.5928 24.0068C37.5928 34.5005 29.1774 43.0073 18.7964 43.0073C8.41543 43.0073 0 34.5005 0 24.0068C0 13.513 8.41543 5.00621 18.7964 5.00621C29.1774 5.00621 37.5928 13.513 37.5928 24.0068Z" fill="#F79C14"/>
</svg>
