<svg width="64" height="65" viewBox="0 0 64 65" fill="none" xmlns="http://www.w3.org/2000/svg">
<path fill-rule="evenodd" clip-rule="evenodd" d="M40.9999 17.8066C40.1715 17.8066 39.4999 18.4782 39.4999 19.3066C39.4999 20.1351 40.1715 20.8066 40.9999 20.8066C41.8283 20.8066 42.4999 20.1351 42.4999 19.3066C42.4999 18.4782 41.8283 17.8066 40.9999 17.8066ZM36.4999 19.3066C36.4999 16.8214 38.5146 14.8066 40.9999 14.8066C43.4852 14.8066 45.4999 16.8214 45.4999 19.3066C45.4999 21.7919 43.4852 23.8066 40.9999 23.8066C38.5146 23.8066 36.4999 21.7919 36.4999 19.3066ZM29.8073 17.9893C31.1235 17.7927 32.4616 17.793 33.7777 17.9901C34.597 18.1128 35.3607 17.5481 35.4834 16.7288C35.6061 15.9095 35.0414 15.1459 34.2221 15.0232C32.6096 14.7817 30.9702 14.7817 29.3577 15.0232L29.3577 15.0232L29.3472 15.0248C26.4092 15.4861 23.6502 16.732 21.3613 18.6309C19.0725 20.5299 17.3387 23.0116 16.343 25.814C15.3473 28.6164 15.1266 31.6356 15.7042 34.553C16.2812 37.4681 17.634 40.1736 19.6198 42.3843C19.6545 42.4241 19.6795 42.4714 19.6928 42.5226C19.7053 42.5711 19.707 42.6217 19.6978 42.6708L18.6471 46.9131C18.5324 47.3494 18.544 47.8096 18.6809 48.2399C18.82 48.6771 19.0826 49.0649 19.4369 49.3563C19.7913 49.6478 20.2224 49.8307 20.6783 49.8829C21.1342 49.935 21.5954 49.8543 22.0065 49.6504L22.0319 49.6375L26.9101 47.1008C26.9764 47.0884 27.0452 47.0938 27.1093 47.1171C27.1331 47.1257 27.1572 47.1337 27.1814 47.1411C29.2162 47.7631 31.3517 47.9871 33.4712 47.8009L33.4715 47.8009C36.0306 47.5755 38.5019 46.7564 40.689 45.4087C42.876 44.0609 44.7187 42.2217 46.0704 40.0371C47.4222 37.8525 48.2458 35.3827 48.4759 32.8241C48.706 30.2654 48.3362 27.6883 47.3958 25.2976C47.0926 24.5267 46.2218 24.1475 45.4509 24.4507C44.6799 24.754 44.3008 25.6248 44.604 26.3957C45.3736 28.3523 45.6763 30.4613 45.488 32.5554C45.2997 34.6494 44.6256 36.6707 43.5193 38.4585C42.413 40.2464 40.905 41.7517 39.1151 42.8547C37.3252 43.9576 35.3027 44.628 33.2083 44.8124C31.4834 44.9639 29.7455 44.7836 28.0885 44.2813C27.3565 44.0272 26.5588 44.0321 25.8293 44.2962C25.7671 44.3187 25.7065 44.3453 25.6479 44.3758L21.881 46.3346L22.6159 43.3672L22.6243 43.3317C22.7387 42.8162 22.7293 42.2809 22.5967 41.7697C22.4642 41.2585 22.2124 40.786 21.8619 40.3911L21.8619 40.391L21.8554 40.3838C20.2282 38.5738 19.1197 36.358 18.647 33.9704C18.1744 31.5828 18.355 29.1119 19.1699 26.8184C19.9848 24.5249 21.4037 22.4939 23.2769 20.9398C25.1487 19.3868 27.4048 18.3675 29.8073 17.9893ZM25.9999 29.8066C26.8283 29.8066 27.4999 30.4782 27.4999 31.3066V31.3081C27.4999 32.1366 26.8283 32.8081 25.9999 32.8081C25.1715 32.8081 24.4999 32.1366 24.4999 31.3081V31.3066C24.4999 30.4782 25.1715 29.8066 25.9999 29.8066ZM31.9999 29.8066C32.8283 29.8066 33.4999 30.4782 33.4999 31.3066V31.3081C33.4999 32.1366 32.8283 32.8081 31.9999 32.8081C31.1715 32.8081 30.4999 32.1366 30.4999 31.3081V31.3066C30.4999 30.4782 31.1715 29.8066 31.9999 29.8066ZM37.9999 29.8066C38.8283 29.8066 39.4999 30.4782 39.4999 31.3066V31.3081C39.4999 32.1366 38.8283 32.8081 37.9999 32.8081C37.1715 32.8081 36.4999 32.1366 36.4999 31.3081V31.3066C36.4999 30.4782 37.1715 29.8066 37.9999 29.8066Z" fill="white"/>
<rect x="1" y="1.30566" width="62" height="62" rx="31" stroke="white" stroke-width="2"/>
</svg>
