<svg width="18" height="18" viewBox="0 0 18 18" fill="none" xmlns="http://www.w3.org/2000/svg">
<path fill-rule="evenodd" clip-rule="evenodd" d="M13.5004 1.55469C13.0862 1.55469 12.7504 1.89047 12.7504 2.30469C12.7504 2.7189 13.0862 3.05469 13.5004 3.05469C13.9147 3.05469 14.2504 2.7189 14.2504 2.30469C14.2504 1.89047 13.9147 1.55469 13.5004 1.55469ZM11.2504 2.30469C11.2504 1.06205 12.2578 0.0546875 13.5004 0.0546875C14.7431 0.0546875 15.7504 1.06205 15.7504 2.30469C15.7504 3.54733 14.7431 4.55469 13.5004 4.55469C12.2578 4.55469 11.2504 3.54733 11.2504 2.30469ZM7.90415 1.64602C8.56224 1.54772 9.23129 1.54785 9.88935 1.64641C10.299 1.70777 10.6808 1.42542 10.7422 1.01578C10.8035 0.606136 10.5212 0.224316 10.1115 0.162961C9.30531 0.0422074 8.48558 0.0422074 7.67935 0.162961L7.67935 0.162943L7.67411 0.163765C6.20509 0.394415 4.82558 1.01735 3.68116 1.96684C2.53674 2.91633 1.66986 4.15715 1.17201 5.55835C0.674152 6.95955 0.563789 8.46916 0.852564 9.92787C1.14111 11.3854 1.81748 12.7382 2.81037 13.8435C2.82774 13.8634 2.84024 13.8871 2.84687 13.9127C2.85315 13.9369 2.854 13.9622 2.84937 13.9868L2.32405 16.1079C2.26668 16.3261 2.27249 16.5562 2.34094 16.7713C2.41049 16.9899 2.54177 17.1838 2.71895 17.3295C2.89613 17.4753 3.11167 17.5667 3.33962 17.5928C3.56757 17.6189 3.79819 17.5785 4.00372 17.4766L4.01646 17.4701L6.45554 16.2018C6.48869 16.1956 6.52308 16.1983 6.55513 16.2099C6.56705 16.2142 6.57908 16.2182 6.59121 16.2219C7.60857 16.5329 8.67633 16.6449 9.73607 16.5518L9.73624 16.5518C11.0158 16.4391 12.2514 16.0296 13.345 15.3557C14.4385 14.6818 15.3598 13.7622 16.0357 12.6699C16.7116 11.5776 17.1234 10.3427 17.2384 9.06339C17.3535 7.78405 17.1686 6.49552 16.6984 5.30016C16.5468 4.91469 16.1114 4.72512 15.7259 4.87674C15.3404 5.02836 15.1509 5.46375 15.3025 5.84922C15.6873 6.8275 15.8386 7.88204 15.7445 8.92905C15.6503 9.97607 15.3133 10.9867 14.7602 11.8806C14.207 12.7746 13.453 13.5272 12.558 14.0787C11.6631 14.6302 10.6518 14.9654 9.60465 15.0576C8.74218 15.1333 7.87323 15.0432 7.04476 14.792C6.67873 14.6649 6.27988 14.6674 5.91513 14.7995C5.88405 14.8107 5.85375 14.824 5.82443 14.8393L3.941 15.8187L4.30845 14.335L4.31262 14.3172C4.36984 14.0595 4.36513 13.7918 4.29886 13.5362C4.2326 13.2806 4.10668 13.0444 3.93143 12.8469L3.93144 12.8469L3.92819 12.8433C3.11457 11.9383 2.56034 10.8304 2.32401 9.63657C2.08767 8.44276 2.178 7.20729 2.58544 6.06055C2.99288 4.9138 3.70234 3.89831 4.63894 3.12125C5.57485 2.34475 6.70289 1.83512 7.90415 1.64602ZM6.00044 7.55469C6.41466 7.55469 6.75044 7.89047 6.75044 8.30469V8.30544C6.75044 8.71965 6.41466 9.05544 6.00044 9.05544C5.58623 9.05544 5.25044 8.71965 5.25044 8.30544V8.30469C5.25044 7.89047 5.58623 7.55469 6.00044 7.55469ZM9.00044 7.55469C9.41466 7.55469 9.75044 7.89047 9.75044 8.30469V8.30544C9.75044 8.71965 9.41466 9.05544 9.00044 9.05544C8.58623 9.05544 8.25044 8.71965 8.25044 8.30544V8.30469C8.25044 7.89047 8.58623 7.55469 9.00044 7.55469ZM12.0004 7.55469C12.4147 7.55469 12.7504 7.89047 12.7504 8.30469V8.30544C12.7504 8.71965 12.4147 9.05544 12.0004 9.05544C11.5862 9.05544 11.2504 8.71965 11.2504 8.30544V8.30469C11.2504 7.89047 11.5862 7.55469 12.0004 7.55469Z" fill="#2A2F35"/>
</svg>
