<svg width="18" height="19" viewBox="0 0 18 19" fill="none" xmlns="http://www.w3.org/2000/svg">
<path fill-rule="evenodd" clip-rule="evenodd" d="M0.75 4.80566C0.75 3.56302 1.75736 2.55566 3 2.55566H15C16.2426 2.55566 17.25 3.56302 17.25 4.80566V13.8057C17.25 15.0483 16.2426 16.0557 15 16.0557H3C1.75736 16.0557 0.75 15.0483 0.75 13.8057V4.80566ZM3 4.05566C2.58579 4.05566 2.25 4.39145 2.25 4.80566V5.88102L9 9.93102L15.75 5.88102V4.80566C15.75 4.39145 15.4142 4.05566 15 4.05566H3ZM15.75 7.63031L9.77174 11.2173C9.29672 11.5023 8.70328 11.5023 8.22826 11.2173L2.25 7.63031V13.8057C2.25 14.2199 2.58579 14.5557 3 14.5557H15C15.4142 14.5557 15.75 14.2199 15.75 13.8057V7.63031Z" fill="#1E2126"/>
</svg>
