<svg width="12" height="13" viewBox="0 0 12 13" fill="none" xmlns="http://www.w3.org/2000/svg">
<path fill-rule="evenodd" clip-rule="evenodd" d="M9.49923 3.88867C9.49923 5.82167 7.93222 7.38867 5.99923 7.38867C4.06623 7.38867 2.49923 5.82167 2.49923 3.88867C2.49923 1.95568 4.06623 0.388672 5.99923 0.388672C7.93222 0.388672 9.49923 1.95568 9.49923 3.88867ZM8.33256 3.88867C8.33256 5.17734 7.28789 6.222 5.99923 6.222C4.71056 6.222 3.66589 5.17734 3.66589 3.88867C3.66589 2.60001 4.71056 1.55534 5.99923 1.55534C7.28789 1.55534 8.33256 2.60001 8.33256 3.88867Z" fill="#81878E"/>
<path fill-rule="evenodd" clip-rule="evenodd" d="M5.99927 7.972C4.28711 7.972 3.05263 8.32716 2.1671 8.85968C1.27804 9.39433 0.778667 10.0851 0.502904 10.6892C0.270455 11.1985 0.376251 11.7174 0.685086 12.0872C0.979475 12.4396 1.43721 12.6387 1.91592 12.6387H10.0826C10.5613 12.6387 11.019 12.4396 11.3134 12.0872C11.6222 11.7175 11.728 11.1985 11.4956 10.6893C11.2198 10.0851 10.7205 9.39435 9.83144 8.85969C8.94591 8.32716 7.71144 7.972 5.99927 7.972ZM1.56423 11.1737C1.75565 10.7543 2.10728 10.257 2.76835 9.85949C3.43294 9.45983 4.44772 9.13867 5.99927 9.13867C7.55082 9.13867 8.5656 9.45983 9.23018 9.8595C9.89123 10.257 10.2428 10.7543 10.4343 11.1737C10.4569 11.2232 10.4559 11.253 10.4536 11.2682C10.451 11.2855 10.4425 11.3099 10.418 11.3393C10.3654 11.4022 10.2482 11.472 10.0826 11.472H1.91592C1.7503 11.472 1.63307 11.4022 1.58048 11.3392C1.55599 11.3099 1.54747 11.2855 1.54488 11.2682C1.54261 11.253 1.54163 11.2232 1.56423 11.1737Z" fill="#81878E"/>
</svg>
