<svg width="65" height="65" viewBox="0 0 65 65" fill="none" xmlns="http://www.w3.org/2000/svg">
<path fill-rule="evenodd" clip-rule="evenodd" d="M34.1116 18.1061L32.9977 18.8267L31.8837 18.1061C32.1282 17.7282 32.5476 17.5 32.9977 17.5C33.4478 17.5 33.8672 17.7282 34.1116 18.1061ZM32.9977 21.3228C32.9177 21.4528 32.8343 21.5887 32.7479 21.7302C31.9256 23.0763 30.831 24.9181 29.7381 26.9061C28.6428 28.8983 27.5613 31.0157 26.7572 32.9174C25.9283 34.8776 25.48 36.4167 25.48 37.329C25.48 39.3228 26.272 41.235 27.6819 42.6448C29.0917 44.0547 31.0039 44.8467 32.9977 44.8467C34.9915 44.8467 36.9037 44.0547 38.3135 42.6448C39.7233 41.235 40.5154 39.3228 40.5154 37.329C40.5154 36.4167 40.067 34.8776 39.2382 32.9174C38.4341 31.0157 37.3525 28.8983 36.2573 26.9061C35.1644 24.9181 34.0698 23.0763 33.2475 21.7302C33.1611 21.5887 33.0777 21.4528 32.9977 21.3228ZM32.9977 18.8267C31.8837 18.1061 31.8839 18.1059 31.8837 18.1061L31.8764 18.1175L31.8565 18.1484L31.7806 18.2668C31.7145 18.3702 31.618 18.5217 31.4956 18.7157C31.2508 19.1037 30.9019 19.6622 30.4836 20.347C29.6476 21.7155 28.5311 23.5939 27.4129 25.6278C26.2971 27.6576 25.1675 29.8639 24.3133 31.8841C23.4838 33.8458 22.8267 35.8268 22.8267 37.329C22.8267 40.0265 23.8982 42.6136 25.8057 44.521C27.7131 46.4284 30.3002 47.5 32.9977 47.5C35.6952 47.5 38.2822 46.4284 40.1897 44.521C42.0971 42.6136 43.1687 40.0265 43.1687 37.329C43.1687 35.8268 42.5115 33.8458 41.682 31.8841C40.8278 29.8639 39.6983 27.6576 38.5824 25.6278C37.4642 23.5939 36.3477 21.7155 35.5117 20.347C35.0934 19.6622 34.7445 19.1037 34.4997 18.7157C34.3773 18.5217 34.2809 18.3702 34.2148 18.2668L34.1388 18.1484L34.1189 18.1175L34.1122 18.1071C34.1121 18.1069 34.1116 18.1061 32.9977 18.8267Z" fill="white"/>
<rect x="1.99756" y="1.5" width="62" height="62" rx="31" stroke="white" stroke-width="2"/>
</svg>
