<svg width="65" height="65" viewBox="0 0 65 65" fill="none" xmlns="http://www.w3.org/2000/svg">
<path fill-rule="evenodd" clip-rule="evenodd" d="M23.8671 23.9134C22.0662 23.9134 20.6063 25.3733 20.6063 27.1743V37.8264C20.6063 39.6274 22.0662 41.0873 23.8671 41.0873H42.128C43.9289 41.0873 45.3889 39.6274 45.3889 37.8264V37.2286H40.9867C39.7327 37.2286 38.53 36.7305 37.6433 35.8437C36.7566 34.957 36.2584 33.7544 36.2584 32.5004C36.2584 31.2463 36.7566 30.0437 37.6433 29.157C38.53 28.2702 39.7327 27.7721 40.9867 27.7721H45.3889V27.1743C45.3889 25.3733 43.9289 23.9134 42.128 23.9134H23.8671ZM47.9976 27.1743C47.9976 23.9326 45.3697 21.3047 42.128 21.3047H23.8671C20.6255 21.3047 17.9976 23.9326 17.9976 27.1743V37.8264C17.9976 41.0681 20.6255 43.696 23.8671 43.696H42.128C45.3697 43.696 47.9976 41.0681 47.9976 37.8264V27.1743ZM45.3889 30.3808H40.9867C40.4245 30.3808 39.8854 30.6041 39.4879 31.0016C39.0904 31.3991 38.8671 31.9382 38.8671 32.5004C38.8671 33.0625 39.0904 33.6016 39.4879 33.9991C39.8854 34.3966 40.4245 34.6199 40.9867 34.6199H45.3889V30.3808ZM24.0845 27.9351C24.0845 27.2148 24.6685 26.6308 25.3889 26.6308H29.9541C30.6745 26.6308 31.2584 27.2148 31.2584 27.9351C31.2584 28.6555 30.6745 29.2395 29.9541 29.2395H25.3889C24.6685 29.2395 24.0845 28.6555 24.0845 27.9351Z" fill="white"/>
<rect x="1.99756" y="1.5" width="62" height="62" rx="31" stroke="white" stroke-width="2"/>
</svg>
