<svg width="65" height="65" viewBox="0 0 65 65" fill="none" xmlns="http://www.w3.org/2000/svg">
<path fill-rule="evenodd" clip-rule="evenodd" d="M46.3554 25.8995C46.7256 26.1855 46.7939 26.7174 46.5079 27.0876L40.4006 34.9935L40.3994 34.995C39.9508 35.5732 39.3758 36.041 38.7186 36.3629C38.0614 36.6848 37.3393 36.8521 36.6074 36.8521C35.8756 36.8521 35.1535 36.6848 34.4963 36.3629C33.8391 36.041 33.2641 35.5732 32.8154 34.995L32.8069 34.984L29.8467 31.0369C29.557 30.6652 29.1864 30.3643 28.7631 30.157C28.3379 29.9487 27.8706 29.8404 27.3971 29.8404C26.9236 29.8404 26.4563 29.9487 26.031 30.157C25.6061 30.3651 25.2343 30.6676 24.944 31.0413C24.9438 31.0416 24.9442 31.0411 24.944 31.0413L18.8373 38.9465C18.5513 39.3167 18.0194 39.385 17.6491 39.099C17.2789 38.813 17.2106 38.281 17.4966 37.9108L23.6039 30.0049L23.6051 30.0034C24.0538 29.4253 24.6287 28.9574 25.2859 28.6355C25.9432 28.3137 26.6653 28.1463 27.3971 28.1463C28.1289 28.1463 28.851 28.3137 29.5083 28.6355C30.1655 28.9574 30.7404 29.4253 31.1891 30.0034L31.1977 30.0144L34.1578 33.9616C34.4476 34.3332 34.8181 34.6342 35.2414 34.8415C35.6667 35.0497 36.1339 35.158 36.6074 35.158C37.081 35.158 37.5482 35.0497 37.9735 34.8415C38.3984 34.6334 38.7701 34.331 39.0603 33.9573C39.0606 33.957 39.0608 33.9567 39.0611 33.9563L45.1672 26.052C45.4532 25.6817 45.9852 25.6135 46.3554 25.8995Z" fill="white"/>
<path fill-rule="evenodd" clip-rule="evenodd" d="M44.3758 25.4406C44.9995 24.6334 46.1595 24.4845 46.9667 25.1081C47.774 25.7317 47.9229 26.8917 47.2993 27.699L41.192 35.6049L41.1896 35.6079C40.6475 36.3065 39.9526 36.8721 39.1584 37.261C38.3643 37.6499 37.4917 37.8521 36.6074 37.8521C35.7232 37.8521 34.8506 37.6499 34.0565 37.261C33.2623 36.8721 32.5676 36.3067 32.0254 35.6081L32.0169 35.5971C32.0104 35.5888 32.0041 35.5804 31.9979 35.5718L29.0528 31.645C28.8571 31.3961 28.6078 31.1944 28.3233 31.0551C28.035 30.9139 27.7182 30.8404 27.3971 30.8404C27.076 30.8404 26.7592 30.9139 26.4709 31.0551C26.1828 31.1961 25.9308 31.4011 25.734 31.6544L19.6287 39.5578C19.0051 40.3651 17.8451 40.514 17.0378 39.8903C16.2305 39.2667 16.0816 38.1067 16.7053 37.2995L22.8151 29.3903C23.3572 28.6917 24.0519 28.1264 24.8461 27.7374C25.6403 27.3485 26.5128 27.1463 27.3971 27.1463C28.2814 27.1463 29.1539 27.3485 29.9481 27.7374C30.7422 28.1264 31.4369 28.6917 31.9791 29.3903L31.9876 29.4013C31.9941 29.4097 32.0005 29.4181 32.0067 29.4266L34.9517 33.3534C35.1474 33.6024 35.3967 33.804 35.6812 33.9434L34.9361 35.4648M18.0459 38.3351C18.0459 38.3352 18.046 38.3351 18.0459 38.3351V38.3351ZM44.3758 25.4406L38.2715 33.3427L44.3758 25.4406ZM38.2715 33.3427L38.2706 33.3439L38.2715 33.3427ZM38.2706 33.3439C38.2705 33.344 38.2699 33.3448 38.2698 33.3449L38.2706 33.3439Z" fill="white"/>
<rect x="1.00244" y="1.5" width="62" height="62" rx="31" stroke="white" stroke-width="2"/>
</svg>
