<svg width="65" height="65" viewBox="0 0 65 65" fill="none" xmlns="http://www.w3.org/2000/svg">
<path d="M26.5781 15.7851C26.715 15.3196 27.1422 15 27.6274 15H36.3774C36.729 15 37.0591 15.169 37.2647 15.4542C37.4703 15.7394 37.5262 16.1061 37.415 16.4396L33.5199 28.125H41.8462C42.2639 28.125 42.6452 28.3629 42.8287 28.7382C43.0122 29.1134 42.966 29.5605 42.7095 29.8902L27.397 49.5777C27.0729 49.9945 26.4972 50.1202 26.0288 49.8764C25.5604 49.6327 25.333 49.0892 25.4883 48.5845L29.4278 35.7812H22.1587C21.814 35.7812 21.4895 35.6187 21.283 35.3427C21.0765 35.0667 21.0121 34.7095 21.1094 34.3788L26.5781 15.7851Z" fill="white"/>
<rect x="1.00244" y="1.5" width="62" height="62" rx="31" stroke="white" stroke-width="2"/>
</svg>
