<svg width="14" height="15" viewBox="0 0 14 15" fill="none" xmlns="http://www.w3.org/2000/svg">
<path d="M11.6896 9.92853L10.04 9.74018C9.64384 9.69472 9.25416 9.83111 8.9749 10.1104L7.77989 11.3054C5.94192 10.3702 4.43518 8.86991 3.49996 7.02545L4.70146 5.82395C4.98073 5.54468 5.11711 5.155 5.07165 4.75883L4.88331 3.1222C4.80537 2.46625 4.25333 1.97266 3.59088 1.97266H2.46732C1.73343 1.97266 1.12294 2.58315 1.1684 3.31704C1.51261 8.86341 5.94842 13.2927 11.4883 13.6369C12.2222 13.6824 12.8327 13.0719 12.8327 12.338V11.2145C12.8392 10.5585 12.3456 10.0065 11.6896 9.92853Z" fill="#81878E"/>
</svg>
