<svg width="32" height="33" viewBox="0 0 32 33" fill="none" xmlns="http://www.w3.org/2000/svg">
<rect x="-0.000976562" y="0.305664" width="32.0007" height="32" rx="16" fill="#419FD9"/>
<rect x="-0.000976562" y="0.305664" width="32.0007" height="32" rx="16" fill="url(#paint0_linear_327_5157)"/>
<path d="M7.19062 15.9536C11.8436 13.8838 14.9463 12.5193 16.4987 11.86C20.9313 9.97765 21.8523 9.65067 22.4527 9.63975C22.5847 9.63749 22.8799 9.6709 23.0712 9.82933C23.2326 9.96311 23.2771 10.1438 23.2983 10.2707C23.3196 10.3975 23.3461 10.6864 23.325 10.9122C23.0848 13.489 22.0455 19.7422 21.5167 22.6283C21.293 23.8495 20.8524 24.259 20.4259 24.299C19.499 24.3861 18.7952 23.6736 17.8974 23.0728C16.4927 22.1326 15.6991 21.5473 14.3355 20.6299C12.7596 19.5696 13.7812 18.9869 14.6793 18.0345C14.9143 17.7853 18.9982 13.9927 19.0772 13.6486C19.0871 13.6056 19.0963 13.4452 19.003 13.3605C18.9096 13.2758 18.7719 13.3048 18.6725 13.3278C18.5316 13.3605 16.2874 14.8749 11.94 17.8712C11.303 18.3177 10.7261 18.5353 10.2091 18.5239C9.63922 18.5114 8.54298 18.195 7.72804 17.9245C6.72848 17.5927 5.93405 17.4173 6.00322 16.854C6.03925 16.5605 6.43506 16.2604 7.19062 15.9536Z" fill="white"/>
<defs>
<linearGradient id="paint0_linear_327_5157" x1="15.9994" y1="0.305664" x2="15.9994" y2="32.0682" gradientUnits="userSpaceOnUse">
<stop stop-color="#2AABEE"/>
<stop offset="1" stop-color="#229ED9"/>
</linearGradient>
</defs>
</svg>
