<svg width="14" height="15" viewBox="0 0 14 15" fill="none" xmlns="http://www.w3.org/2000/svg">
<path fill-rule="evenodd" clip-rule="evenodd" d="M0.583984 4.30566C0.583984 3.33917 1.36749 2.55566 2.33398 2.55566H11.6673C12.6338 2.55566 13.4173 3.33917 13.4173 4.30566V11.3057C13.4173 12.2722 12.6338 13.0557 11.6673 13.0557H2.33398C1.36749 13.0557 0.583984 12.2722 0.583984 11.3057V4.30566ZM2.33398 3.72233C2.01182 3.72233 1.75065 3.9835 1.75065 4.30566V5.14205L7.00065 8.29205L12.2507 5.14205V4.30566C12.2507 3.9835 11.9895 3.72233 11.6673 3.72233H2.33398ZM12.2507 6.50261L7.6009 9.29246C7.23143 9.51414 6.76987 9.51414 6.40041 9.29246L1.75065 6.50261V11.3057C1.75065 11.6278 2.01182 11.889 2.33398 11.889H11.6673C11.9895 11.889 12.2507 11.6278 12.2507 11.3057V6.50261Z" fill="#81878E"/>
</svg>
