<svg width="32" height="33" viewBox="0 0 32 33" fill="none" xmlns="http://www.w3.org/2000/svg">
<rect y="0.305664" width="32.0007" height="32" rx="16" fill="#675DA9"/>
<path d="M23.836 8.42902C23.3068 7.94244 21.1641 6.38454 16.3878 6.3632C16.3878 6.3632 10.7579 6.02174 8.01339 8.53999C6.48533 10.068 5.94753 12.3003 5.89204 15.0746C5.83655 17.8447 5.76399 23.0392 10.7707 24.4477H10.775L10.7707 26.5946C10.7707 26.5946 10.7408 27.4653 11.3128 27.6403C12.0043 27.8537 12.414 27.1921 13.0756 26.4793C13.4384 26.0867 13.9378 25.5147 14.3177 25.0751C17.7409 25.3611 20.3744 24.7038 20.6732 24.6056C21.3647 24.3794 25.2787 23.88 25.9147 18.6856C26.572 13.3417 25.5946 9.95704 23.836 8.42902ZM24.4165 18.31C23.8787 22.6465 20.7074 22.9196 20.1226 23.1074C19.875 23.1885 17.5616 23.7648 14.6506 23.5727C14.6506 23.5727 12.4823 26.1891 11.8079 26.8678C11.7012 26.9745 11.5774 27.0171 11.4963 26.9958C11.3811 26.9659 11.3469 26.8293 11.3512 26.6287C11.3512 26.3385 11.3683 23.0562 11.3683 23.0562C11.364 23.0562 11.364 23.0562 11.3683 23.0562C7.12985 21.8825 7.37741 17.4606 7.42436 15.1472C7.47132 12.8338 7.90668 10.9345 9.19998 9.65827C11.5177 7.5583 16.3025 7.86988 16.3025 7.86988C20.3403 7.88695 22.2738 9.1034 22.722 9.50888C24.2116 10.7893 24.9714 13.8411 24.4165 18.31Z" fill="white"/>
<path d="M18.3554 15.228C18.2146 15.228 18.0951 15.117 18.0865 14.9719C18.0396 14.0542 17.6085 13.6061 16.7292 13.5591C16.5798 13.5506 16.4646 13.4225 16.4731 13.2731C16.4816 13.1238 16.6097 13.0085 16.7591 13.017C17.9201 13.0811 18.5688 13.7469 18.6286 14.942C18.6371 15.0914 18.5219 15.2195 18.3725 15.2237C18.364 15.228 18.3597 15.228 18.3554 15.228Z" fill="white"/>
<path d="M19.7385 15.6892H19.7343C19.5849 15.6849 19.4654 15.5611 19.4696 15.4117C19.491 14.4898 19.2263 13.7429 18.6629 13.1282C18.1038 12.5136 17.3312 12.1807 16.3111 12.1081C16.1617 12.0953 16.0507 11.9673 16.0635 11.8179C16.0763 11.6685 16.2044 11.5575 16.3538 11.5703C17.5062 11.6557 18.4153 12.0569 19.0641 12.7654C19.7172 13.4782 20.033 14.3703 20.0117 15.4246C20.0074 15.5739 19.8836 15.6892 19.7385 15.6892Z" fill="white"/>
<path d="M21.1551 16.2443C21.0057 16.2443 20.8862 16.1248 20.8862 15.9754C20.8734 14.3236 20.3996 13.0645 19.435 12.1212C18.4831 11.1908 17.2752 10.717 15.8539 10.7042C15.7045 10.7042 15.585 10.5804 15.585 10.431C15.585 10.2816 15.7087 10.1621 15.8539 10.1621C17.4203 10.1749 18.7521 10.6999 19.8063 11.7328C20.8649 12.7657 21.4069 14.1913 21.424 15.9669C21.4283 16.1206 21.3088 16.2443 21.1551 16.2443C21.1594 16.2443 21.1594 16.2443 21.1551 16.2443Z" fill="white"/>
<path d="M16.7929 18.5704C16.7929 18.5704 17.1728 18.6046 17.3777 18.3528L17.7746 17.8534C17.9667 17.6058 18.432 17.4479 18.8844 17.6997C19.1362 17.8406 19.5929 18.1223 19.8746 18.3314C20.1777 18.5534 20.7923 19.0656 20.7966 19.0698C21.0911 19.3174 21.1594 19.6802 20.9588 20.0686C20.9588 20.0686 20.9588 20.0729 20.9588 20.0771C20.7539 20.4399 20.4765 20.7814 20.1307 21.0972C20.1265 21.0972 20.1265 21.1015 20.1222 21.1015C19.8362 21.3405 19.5545 21.4771 19.2814 21.507C19.2472 21.5155 19.2088 21.5155 19.1576 21.5155C19.0381 21.5155 18.9185 21.4985 18.799 21.46L18.7905 21.4472C18.3637 21.3277 17.6551 21.0289 16.4771 20.3759C15.7088 19.9534 15.0728 19.5223 14.5307 19.0912C14.2447 18.865 13.9545 18.6131 13.6557 18.3144C13.6472 18.3058 13.6344 18.293 13.6258 18.2845C13.6173 18.2759 13.6045 18.2631 13.596 18.2546C13.5874 18.2461 13.5746 18.2333 13.5661 18.2247C13.5575 18.2162 13.5447 18.2034 13.5362 18.1948C13.2417 17.8961 12.9856 17.6058 12.7594 17.3199C12.3283 16.7821 11.8972 16.1418 11.4746 15.3735C10.8215 14.1912 10.5228 13.4827 10.4033 13.0602L10.3904 13.0516C10.352 12.9321 10.335 12.8126 10.335 12.6931C10.335 12.6419 10.335 12.6035 10.3435 12.5693C10.3776 12.2919 10.5142 12.0145 10.749 11.7285C10.749 11.7242 10.7533 11.7242 10.7533 11.7199C11.0691 11.3699 11.4106 11.0968 11.7734 10.8919C11.7734 10.8919 11.7777 10.8919 11.7819 10.8919C12.1661 10.6913 12.5289 10.7596 12.7807 11.0541C12.7807 11.0541 13.2972 11.673 13.5191 11.976C13.7283 12.262 14.01 12.7144 14.1508 12.9663C14.4027 13.4187 14.2447 13.8839 13.9972 14.076L13.4978 14.4729C13.246 14.6778 13.2801 15.0577 13.2801 15.0577C13.2801 15.0577 14.0185 17.8662 16.7929 18.5704Z" fill="white"/>
</svg>
